<mxfile host="app.diagrams.net" modified="2021-06-03T09:08:23.182Z" agent="5.0 (Windows NT 10.0; Win64; x64) AppleWebKit/537.36 (KHTML, like Gecko) Chrome/90.0.4430.93 Safari/537.36" etag="wJkdM1cWcGndNEcXFaj5" version="14.7.3" type="github">
  <diagram id="EylCRHHDwNLIMyNz90Ov" name="第 1 页">
    <mxGraphModel dx="1221" dy="579" grid="1" gridSize="10" guides="1" tooltips="1" connect="1" arrows="1" fold="1" page="1" pageScale="1" pageWidth="1169" pageHeight="827" math="0" shadow="0">
      <root>
        <mxCell id="0" />
        <mxCell id="1" parent="0" />
        <mxCell id="Db9tPkWguM0f_bHVwykM-1" style="edgeStyle=orthogonalEdgeStyle;rounded=0;orthogonalLoop=1;jettySize=auto;html=1;exitX=0.5;exitY=1;exitDx=0;exitDy=0;exitPerimeter=0;entryX=0.5;entryY=0;entryDx=0;entryDy=0;" edge="1" parent="1" source="Db9tPkWguM0f_bHVwykM-2" target="Db9tPkWguM0f_bHVwykM-4">
          <mxGeometry relative="1" as="geometry" />
        </mxCell>
        <mxCell id="Db9tPkWguM0f_bHVwykM-2" value="&lt;font face=&quot;Verdana&quot;&gt;开始&lt;/font&gt;" style="strokeWidth=2;html=1;shape=mxgraph.flowchart.terminator;whiteSpace=wrap;" vertex="1" parent="1">
          <mxGeometry x="417.5" y="110" width="80" height="40" as="geometry" />
        </mxCell>
        <mxCell id="Db9tPkWguM0f_bHVwykM-3" style="edgeStyle=orthogonalEdgeStyle;rounded=0;orthogonalLoop=1;jettySize=auto;html=1;exitX=0.5;exitY=1;exitDx=0;exitDy=0;entryX=0.5;entryY=0;entryDx=0;entryDy=0;" edge="1" parent="1" source="Db9tPkWguM0f_bHVwykM-4" target="Db9tPkWguM0f_bHVwykM-6">
          <mxGeometry relative="1" as="geometry" />
        </mxCell>
        <mxCell id="Db9tPkWguM0f_bHVwykM-4" value="硬件初始化" style="rounded=0;whiteSpace=wrap;html=1;" vertex="1" parent="1">
          <mxGeometry x="397.5" y="170" width="120" height="40" as="geometry" />
        </mxCell>
        <mxCell id="Db9tPkWguM0f_bHVwykM-5" style="edgeStyle=orthogonalEdgeStyle;rounded=0;orthogonalLoop=1;jettySize=auto;html=1;exitX=0.5;exitY=1;exitDx=0;exitDy=0;entryX=0.5;entryY=0;entryDx=0;entryDy=0;" edge="1" parent="1" source="Db9tPkWguM0f_bHVwykM-6" target="Db9tPkWguM0f_bHVwykM-7">
          <mxGeometry relative="1" as="geometry" />
        </mxCell>
        <mxCell id="Db9tPkWguM0f_bHVwykM-6" value="定位模块初始化" style="rounded=0;whiteSpace=wrap;html=1;" vertex="1" parent="1">
          <mxGeometry x="397.5" y="240" width="120" height="40" as="geometry" />
        </mxCell>
        <mxCell id="Db9tPkWguM0f_bHVwykM-9" style="edgeStyle=orthogonalEdgeStyle;rounded=0;orthogonalLoop=1;jettySize=auto;html=1;exitX=0.5;exitY=1;exitDx=0;exitDy=0;entryX=0.5;entryY=0;entryDx=0;entryDy=0;" edge="1" parent="1" source="Db9tPkWguM0f_bHVwykM-7" target="Db9tPkWguM0f_bHVwykM-8">
          <mxGeometry relative="1" as="geometry" />
        </mxCell>
        <mxCell id="Db9tPkWguM0f_bHVwykM-7" value="NB-IOT模块初始化" style="rounded=0;whiteSpace=wrap;html=1;" vertex="1" parent="1">
          <mxGeometry x="397.5" y="310" width="120" height="40" as="geometry" />
        </mxCell>
        <mxCell id="Db9tPkWguM0f_bHVwykM-13" style="edgeStyle=orthogonalEdgeStyle;rounded=0;orthogonalLoop=1;jettySize=auto;html=1;exitX=0.5;exitY=1;exitDx=0;exitDy=0;entryX=0.5;entryY=0;entryDx=0;entryDy=0;" edge="1" parent="1" source="Db9tPkWguM0f_bHVwykM-8" target="Db9tPkWguM0f_bHVwykM-10">
          <mxGeometry relative="1" as="geometry" />
        </mxCell>
        <mxCell id="Db9tPkWguM0f_bHVwykM-15" style="edgeStyle=orthogonalEdgeStyle;rounded=0;orthogonalLoop=1;jettySize=auto;html=1;exitX=1;exitY=0.5;exitDx=0;exitDy=0;entryX=1;entryY=0.5;entryDx=0;entryDy=0;" edge="1" parent="1" source="Db9tPkWguM0f_bHVwykM-8" target="Db9tPkWguM0f_bHVwykM-7">
          <mxGeometry relative="1" as="geometry">
            <Array as="points">
              <mxPoint x="590" y="426" />
              <mxPoint x="590" y="330" />
            </Array>
          </mxGeometry>
        </mxCell>
        <mxCell id="Db9tPkWguM0f_bHVwykM-8" value="NB-IOT模块初始化是否完成" style="rhombus;whiteSpace=wrap;html=1;" vertex="1" parent="1">
          <mxGeometry x="360" y="381" width="195" height="89" as="geometry" />
        </mxCell>
        <mxCell id="Db9tPkWguM0f_bHVwykM-14" style="edgeStyle=orthogonalEdgeStyle;rounded=0;orthogonalLoop=1;jettySize=auto;html=1;exitX=0.5;exitY=1;exitDx=0;exitDy=0;entryX=0.5;entryY=0;entryDx=0;entryDy=0;" edge="1" parent="1" source="Db9tPkWguM0f_bHVwykM-10" target="Db9tPkWguM0f_bHVwykM-11">
          <mxGeometry relative="1" as="geometry" />
        </mxCell>
        <mxCell id="Db9tPkWguM0f_bHVwykM-10" value="连接阿里云" style="rounded=0;whiteSpace=wrap;html=1;" vertex="1" parent="1">
          <mxGeometry x="397.5" y="500" width="120" height="40" as="geometry" />
        </mxCell>
        <mxCell id="Db9tPkWguM0f_bHVwykM-33" style="edgeStyle=orthogonalEdgeStyle;rounded=0;orthogonalLoop=1;jettySize=auto;html=1;exitX=1;exitY=0.5;exitDx=0;exitDy=0;entryX=0;entryY=0.5;entryDx=0;entryDy=0;" edge="1" parent="1" source="Db9tPkWguM0f_bHVwykM-11" target="Db9tPkWguM0f_bHVwykM-27">
          <mxGeometry relative="1" as="geometry" />
        </mxCell>
        <mxCell id="Db9tPkWguM0f_bHVwykM-51" style="edgeStyle=orthogonalEdgeStyle;rounded=0;orthogonalLoop=1;jettySize=auto;html=1;exitX=0;exitY=0.5;exitDx=0;exitDy=0;" edge="1" parent="1" source="Db9tPkWguM0f_bHVwykM-11" target="Db9tPkWguM0f_bHVwykM-12">
          <mxGeometry relative="1" as="geometry" />
        </mxCell>
        <mxCell id="Db9tPkWguM0f_bHVwykM-11" value="连接阿里云是否成功" style="rhombus;whiteSpace=wrap;html=1;" vertex="1" parent="1">
          <mxGeometry x="372.5" y="570" width="170" height="60" as="geometry" />
        </mxCell>
        <mxCell id="Db9tPkWguM0f_bHVwykM-23" style="edgeStyle=orthogonalEdgeStyle;rounded=0;orthogonalLoop=1;jettySize=auto;html=1;exitX=0.5;exitY=0;exitDx=0;exitDy=0;entryX=0;entryY=0.5;entryDx=0;entryDy=0;" edge="1" parent="1" source="Db9tPkWguM0f_bHVwykM-12" target="Db9tPkWguM0f_bHVwykM-10">
          <mxGeometry relative="1" as="geometry" />
        </mxCell>
        <mxCell id="Db9tPkWguM0f_bHVwykM-25" style="edgeStyle=orthogonalEdgeStyle;rounded=0;orthogonalLoop=1;jettySize=auto;html=1;exitX=0;exitY=0.5;exitDx=0;exitDy=0;entryX=0;entryY=0.5;entryDx=0;entryDy=0;" edge="1" parent="1" source="Db9tPkWguM0f_bHVwykM-12" target="Db9tPkWguM0f_bHVwykM-7">
          <mxGeometry relative="1" as="geometry">
            <Array as="points">
              <mxPoint x="140" y="600" />
              <mxPoint x="140" y="330" />
            </Array>
          </mxGeometry>
        </mxCell>
        <mxCell id="Db9tPkWguM0f_bHVwykM-12" value="连接是否超时" style="rhombus;whiteSpace=wrap;html=1;" vertex="1" parent="1">
          <mxGeometry x="170" y="575" width="180" height="50" as="geometry" />
        </mxCell>
        <mxCell id="Db9tPkWguM0f_bHVwykM-16" value="否" style="text;html=1;align=center;verticalAlign=middle;resizable=0;points=[];autosize=1;strokeColor=none;" vertex="1" parent="1">
          <mxGeometry x="545" y="400" width="30" height="20" as="geometry" />
        </mxCell>
        <mxCell id="Db9tPkWguM0f_bHVwykM-17" value="是" style="text;html=1;align=center;verticalAlign=middle;resizable=0;points=[];autosize=1;strokeColor=none;" vertex="1" parent="1">
          <mxGeometry x="455" y="470" width="30" height="20" as="geometry" />
        </mxCell>
        <mxCell id="Db9tPkWguM0f_bHVwykM-19" value="否" style="text;html=1;align=center;verticalAlign=middle;resizable=0;points=[];autosize=1;strokeColor=none;" vertex="1" parent="1">
          <mxGeometry x="342.5" y="575" width="30" height="20" as="geometry" />
        </mxCell>
        <mxCell id="Db9tPkWguM0f_bHVwykM-21" value="否" style="text;html=1;align=center;verticalAlign=middle;resizable=0;points=[];autosize=1;strokeColor=none;" vertex="1" parent="1">
          <mxGeometry x="260" y="550" width="30" height="20" as="geometry" />
        </mxCell>
        <mxCell id="Db9tPkWguM0f_bHVwykM-26" value="是" style="text;html=1;align=center;verticalAlign=middle;resizable=0;points=[];autosize=1;strokeColor=none;" vertex="1" parent="1">
          <mxGeometry x="140" y="580" width="30" height="20" as="geometry" />
        </mxCell>
        <mxCell id="Db9tPkWguM0f_bHVwykM-34" style="edgeStyle=orthogonalEdgeStyle;rounded=0;orthogonalLoop=1;jettySize=auto;html=1;exitX=0.5;exitY=1;exitDx=0;exitDy=0;entryX=0.5;entryY=0;entryDx=0;entryDy=0;" edge="1" parent="1" source="Db9tPkWguM0f_bHVwykM-27" target="Db9tPkWguM0f_bHVwykM-28">
          <mxGeometry relative="1" as="geometry" />
        </mxCell>
        <mxCell id="Db9tPkWguM0f_bHVwykM-27" value="定位信息解析" style="rounded=0;whiteSpace=wrap;html=1;" vertex="1" parent="1">
          <mxGeometry x="690" y="170" width="120" height="40" as="geometry" />
        </mxCell>
        <mxCell id="Db9tPkWguM0f_bHVwykM-35" style="edgeStyle=orthogonalEdgeStyle;rounded=0;orthogonalLoop=1;jettySize=auto;html=1;exitX=0.5;exitY=1;exitDx=0;exitDy=0;entryX=0.5;entryY=0;entryDx=0;entryDy=0;" edge="1" parent="1" source="Db9tPkWguM0f_bHVwykM-28" target="Db9tPkWguM0f_bHVwykM-29">
          <mxGeometry relative="1" as="geometry" />
        </mxCell>
        <mxCell id="Db9tPkWguM0f_bHVwykM-28" value="订阅主题" style="rounded=0;whiteSpace=wrap;html=1;" vertex="1" parent="1">
          <mxGeometry x="690" y="240" width="120" height="40" as="geometry" />
        </mxCell>
        <mxCell id="Db9tPkWguM0f_bHVwykM-36" style="edgeStyle=orthogonalEdgeStyle;rounded=0;orthogonalLoop=1;jettySize=auto;html=1;exitX=0.5;exitY=1;exitDx=0;exitDy=0;entryX=0.5;entryY=0;entryDx=0;entryDy=0;" edge="1" parent="1" source="Db9tPkWguM0f_bHVwykM-29" target="Db9tPkWguM0f_bHVwykM-30">
          <mxGeometry relative="1" as="geometry" />
        </mxCell>
        <mxCell id="Db9tPkWguM0f_bHVwykM-29" value="发布信息" style="rounded=0;whiteSpace=wrap;html=1;" vertex="1" parent="1">
          <mxGeometry x="690" y="310" width="120" height="40" as="geometry" />
        </mxCell>
        <mxCell id="Db9tPkWguM0f_bHVwykM-37" style="edgeStyle=orthogonalEdgeStyle;rounded=0;orthogonalLoop=1;jettySize=auto;html=1;exitX=0.5;exitY=1;exitDx=0;exitDy=0;entryX=0.5;entryY=0;entryDx=0;entryDy=0;" edge="1" parent="1" source="Db9tPkWguM0f_bHVwykM-30" target="Db9tPkWguM0f_bHVwykM-31">
          <mxGeometry relative="1" as="geometry" />
        </mxCell>
        <mxCell id="Db9tPkWguM0f_bHVwykM-30" value="接收信息处理" style="rounded=0;whiteSpace=wrap;html=1;" vertex="1" parent="1">
          <mxGeometry x="690" y="380" width="120" height="40" as="geometry" />
        </mxCell>
        <mxCell id="Db9tPkWguM0f_bHVwykM-39" style="edgeStyle=orthogonalEdgeStyle;rounded=0;orthogonalLoop=1;jettySize=auto;html=1;exitX=0.5;exitY=1;exitDx=0;exitDy=0;entryX=0.5;entryY=0;entryDx=0;entryDy=0;" edge="1" parent="1" source="Db9tPkWguM0f_bHVwykM-31" target="Db9tPkWguM0f_bHVwykM-32">
          <mxGeometry relative="1" as="geometry" />
        </mxCell>
        <mxCell id="Db9tPkWguM0f_bHVwykM-49" style="edgeStyle=orthogonalEdgeStyle;rounded=0;orthogonalLoop=1;jettySize=auto;html=1;exitX=1;exitY=0.5;exitDx=0;exitDy=0;entryX=0.5;entryY=0;entryDx=0;entryDy=0;" edge="1" parent="1" source="Db9tPkWguM0f_bHVwykM-31" target="Db9tPkWguM0f_bHVwykM-48">
          <mxGeometry relative="1" as="geometry" />
        </mxCell>
        <mxCell id="Db9tPkWguM0f_bHVwykM-31" value="是否有警告信息" style="rhombus;whiteSpace=wrap;html=1;" vertex="1" parent="1">
          <mxGeometry x="650" y="445" width="200" height="70" as="geometry" />
        </mxCell>
        <mxCell id="Db9tPkWguM0f_bHVwykM-43" style="edgeStyle=orthogonalEdgeStyle;rounded=0;orthogonalLoop=1;jettySize=auto;html=1;exitX=0.5;exitY=1;exitDx=0;exitDy=0;" edge="1" parent="1" source="Db9tPkWguM0f_bHVwykM-32" target="Db9tPkWguM0f_bHVwykM-40">
          <mxGeometry relative="1" as="geometry" />
        </mxCell>
        <mxCell id="Db9tPkWguM0f_bHVwykM-32" value="按键扫描" style="rounded=0;whiteSpace=wrap;html=1;" vertex="1" parent="1">
          <mxGeometry x="690" y="540" width="120" height="40" as="geometry" />
        </mxCell>
        <mxCell id="Db9tPkWguM0f_bHVwykM-38" value="否" style="text;html=1;align=center;verticalAlign=middle;resizable=0;points=[];autosize=1;strokeColor=none;" vertex="1" parent="1">
          <mxGeometry x="750" y="515" width="30" height="20" as="geometry" />
        </mxCell>
        <mxCell id="Db9tPkWguM0f_bHVwykM-44" style="edgeStyle=orthogonalEdgeStyle;rounded=0;orthogonalLoop=1;jettySize=auto;html=1;exitX=0.5;exitY=1;exitDx=0;exitDy=0;entryX=0.5;entryY=0;entryDx=0;entryDy=0;" edge="1" parent="1" source="Db9tPkWguM0f_bHVwykM-40" target="Db9tPkWguM0f_bHVwykM-41">
          <mxGeometry relative="1" as="geometry" />
        </mxCell>
        <mxCell id="Db9tPkWguM0f_bHVwykM-45" style="edgeStyle=orthogonalEdgeStyle;rounded=0;orthogonalLoop=1;jettySize=auto;html=1;exitX=1;exitY=0.5;exitDx=0;exitDy=0;" edge="1" parent="1" source="Db9tPkWguM0f_bHVwykM-40" target="Db9tPkWguM0f_bHVwykM-42">
          <mxGeometry relative="1" as="geometry" />
        </mxCell>
        <mxCell id="Db9tPkWguM0f_bHVwykM-40" value="是否有报警按键按下" style="rhombus;whiteSpace=wrap;html=1;" vertex="1" parent="1">
          <mxGeometry x="650" y="610" width="200" height="70" as="geometry" />
        </mxCell>
        <mxCell id="Db9tPkWguM0f_bHVwykM-41" value="OLED显示" style="rounded=0;whiteSpace=wrap;html=1;" vertex="1" parent="1">
          <mxGeometry x="690" y="710" width="120" height="40" as="geometry" />
        </mxCell>
        <mxCell id="Db9tPkWguM0f_bHVwykM-42" value="发布警告信息" style="rounded=0;whiteSpace=wrap;html=1;" vertex="1" parent="1">
          <mxGeometry x="890" y="625" width="120" height="40" as="geometry" />
        </mxCell>
        <mxCell id="Db9tPkWguM0f_bHVwykM-46" value="是" style="text;html=1;align=center;verticalAlign=middle;resizable=0;points=[];autosize=1;strokeColor=none;" vertex="1" parent="1">
          <mxGeometry x="845" y="620" width="30" height="20" as="geometry" />
        </mxCell>
        <mxCell id="Db9tPkWguM0f_bHVwykM-47" value="否" style="text;html=1;align=center;verticalAlign=middle;resizable=0;points=[];autosize=1;strokeColor=none;" vertex="1" parent="1">
          <mxGeometry x="750" y="680" width="30" height="20" as="geometry" />
        </mxCell>
        <mxCell id="Db9tPkWguM0f_bHVwykM-50" style="edgeStyle=orthogonalEdgeStyle;rounded=0;orthogonalLoop=1;jettySize=auto;html=1;exitX=0;exitY=0.5;exitDx=0;exitDy=0;entryX=1;entryY=0.5;entryDx=0;entryDy=0;" edge="1" parent="1" source="Db9tPkWguM0f_bHVwykM-48" target="Db9tPkWguM0f_bHVwykM-32">
          <mxGeometry relative="1" as="geometry" />
        </mxCell>
        <mxCell id="Db9tPkWguM0f_bHVwykM-48" value="蜂鸣器报警" style="rounded=0;whiteSpace=wrap;html=1;" vertex="1" parent="1">
          <mxGeometry x="890" y="540" width="120" height="40" as="geometry" />
        </mxCell>
        <mxCell id="Db9tPkWguM0f_bHVwykM-52" value="是" style="text;html=1;align=center;verticalAlign=middle;resizable=0;points=[];autosize=1;strokeColor=none;" vertex="1" parent="1">
          <mxGeometry x="555" y="575" width="30" height="20" as="geometry" />
        </mxCell>
      </root>
    </mxGraphModel>
  </diagram>
</mxfile>
